<svg xmlns="http://www.w3.org/2000/svg" width="491.25" viewBox="0 0 491.25 135" height="135" version="1.0"><defs><clipPath id="a"><path d="M 1.433594 0 L 489.070312 0 L 489.070312 134.007812 L 1.433594 134.007812 Z M 1.433594 0"/></clipPath></defs><g clip-path="url(#a)" fill="#FFF"><path d="M 1.433594 0 L 489.816406 0 L 489.816406 141.453125 L 1.433594 141.453125 Z M 1.433594 0"/><path d="M 1.433594 0 L 489.070312 0 L 489.070312 134.007812 L 1.433594 134.007812 Z M 1.433594 0"/><path d="M 1.433594 0 L 489.070312 0 L 489.070312 134.007812 L 1.433594 134.007812 Z M 1.433594 0"/></g><g><g><g><path d="M 18.78125 -17.78125 L 18.78125 -7.21875 C 18.78125 -5.46875 18.953125 -4.195312 19.296875 -3.40625 C 19.648438 -2.625 20.289062 -2.097656 21.21875 -1.828125 C 22.15625 -1.566406 23.640625 -1.4375 25.671875 -1.4375 L 25.671875 0 C 20.078125 -0.125 15.8125 -0.1875 12.875 -0.1875 C 10.925781 -0.1875 8.207031 -0.144531 4.71875 -0.0625 L 1.734375 0 L 1.734375 -1.25 C 3.066406 -1.332031 4.03125 -1.492188 4.625 -1.734375 C 5.226562 -1.984375 5.632812 -2.460938 5.84375 -3.171875 C 6.050781 -3.878906 6.15625 -5.019531 6.15625 -6.59375 L 6.15625 -37.421875 C 6.15625 -39.003906 6.039062 -40.144531 5.8125 -40.84375 C 5.582031 -41.550781 5.175781 -42.03125 4.59375 -42.28125 C 4.019531 -42.53125 3.066406 -42.695312 1.734375 -42.78125 L 1.734375 -44.015625 C 4.097656 -43.890625 7.664062 -43.828125 12.4375 -43.828125 L 19.578125 -43.890625 C 20.410156 -43.929688 21.363281 -43.953125 22.4375 -43.953125 C 28.570312 -43.953125 33.222656 -42.84375 36.390625 -40.625 C 39.566406 -38.40625 41.15625 -35.429688 41.15625 -31.703125 C 41.15625 -29.421875 40.53125 -27.234375 39.28125 -25.140625 C 38.039062 -23.054688 35.925781 -21.304688 32.9375 -19.890625 C 29.957031 -18.484375 26.003906 -17.78125 21.078125 -17.78125 Z M 22.140625 -42.78125 C 21.179688 -42.78125 20.460938 -42.632812 19.984375 -42.34375 C 19.503906 -42.050781 19.179688 -41.53125 19.015625 -40.78125 C 18.859375 -40.039062 18.78125 -38.921875 18.78125 -37.421875 L 18.78125 -19.03125 L 20.453125 -19.03125 C 23.359375 -19.03125 25.359375 -20.101562 26.453125 -22.25 C 27.554688 -24.40625 28.109375 -27.332031 28.109375 -31.03125 C 28.109375 -35.039062 27.648438 -38 26.734375 -39.90625 C 25.816406 -41.820312 24.285156 -42.78125 22.140625 -42.78125 Z M 22.140625 -42.78125" transform="translate(24.124 89.182)"/></g></g></g><g><g><g><path d="M 24 -33.140625 C 26.03125 -33.140625 27.488281 -32.515625 28.375 -31.265625 C 29.269531 -30.023438 29.71875 -28.554688 29.71875 -26.859375 C 29.71875 -24.992188 29.1875 -23.507812 28.125 -22.40625 C 27.070312 -21.3125 25.695312 -20.765625 24 -20.765625 C 22.21875 -20.765625 20.847656 -21.164062 19.890625 -21.96875 C 18.941406 -22.78125 18.46875 -23.867188 18.46875 -25.234375 C 18.46875 -27.679688 19.523438 -29.613281 21.640625 -31.03125 C 20.890625 -31.03125 20.222656 -30.882812 19.640625 -30.59375 C 18.609375 -30.132812 17.738281 -29.394531 17.03125 -28.375 C 16.332031 -27.363281 15.984375 -26.257812 15.984375 -25.0625 L 15.984375 -6.40625 C 15.984375 -4.457031 16.382812 -3.117188 17.1875 -2.390625 C 18 -1.671875 19.378906 -1.3125 21.328125 -1.3125 L 21.328125 0 C 20.785156 0 20.328125 -0.0195312 19.953125 -0.0625 C 15.597656 -0.1875 12.695312 -0.25 11.25 -0.25 C 9.96875 -0.25 7.085938 -0.1875 2.609375 -0.0625 C 2.273438 -0.0195312 1.84375 0 1.3125 0 L 1.3125 -1.3125 C 2.59375 -1.3125 3.488281 -1.628906 4 -2.265625 C 4.519531 -2.910156 4.78125 -4.082031 4.78125 -5.78125 L 4.78125 -25.484375 C 4.78125 -27.390625 4.519531 -28.78125 4 -29.65625 C 3.488281 -30.53125 2.59375 -30.96875 1.3125 -30.96875 L 1.3125 -32.265625 C 2.632812 -32.140625 3.914062 -32.078125 5.15625 -32.078125 C 9.46875 -32.078125 13.078125 -32.367188 15.984375 -32.953125 L 15.984375 -28.46875 C 17.554688 -31.582031 20.226562 -33.140625 24 -33.140625 Z M 24 -33.140625" transform="translate(66.278 89.182)"/></g></g></g><g><g><g><path d="M 17.90625 -33.140625 C 23 -33.140625 26.9375 -31.800781 29.71875 -29.125 C 32.5 -26.457031 33.890625 -22.117188 33.890625 -16.109375 C 33.890625 -10.097656 32.5 -5.765625 29.71875 -3.109375 C 26.9375 -0.453125 23 0.875 17.90625 0.875 C 12.8125 0.875 8.875 -0.453125 6.09375 -3.109375 C 3.3125 -5.765625 1.921875 -10.097656 1.921875 -16.109375 C 1.921875 -22.117188 3.3125 -26.457031 6.09375 -29.125 C 8.875 -31.800781 12.8125 -33.140625 17.90625 -33.140625 Z M 17.90625 -31.890625 C 16.582031 -31.890625 15.523438 -30.582031 14.734375 -27.96875 C 13.941406 -25.363281 13.546875 -21.410156 13.546875 -16.109375 C 13.546875 -10.796875 13.941406 -6.84375 14.734375 -4.25 C 15.523438 -1.664062 16.582031 -0.375 17.90625 -0.375 C 19.226562 -0.375 20.28125 -1.664062 21.0625 -4.25 C 21.851562 -6.84375 22.25 -10.796875 22.25 -16.109375 C 22.25 -21.410156 21.851562 -25.363281 21.0625 -27.96875 C 20.28125 -30.582031 19.226562 -31.890625 17.90625 -31.890625 Z M 17.90625 -31.890625" transform="translate(96.184 89.182)"/></g></g></g><g><g><g><path d="M -1.3125 10.4375 C 0.476562 10.4375 1.910156 9.804688 2.984375 8.546875 C 4.054688 7.285156 4.59375 5.304688 4.59375 2.609375 L 4.59375 -25.484375 C 4.59375 -27.390625 4.332031 -28.78125 3.8125 -29.65625 C 3.300781 -30.53125 2.40625 -30.96875 1.125 -30.96875 L 1.125 -32.265625 C 2.40625 -32.140625 3.6875 -32.078125 4.96875 -32.078125 C 9.28125 -32.078125 12.890625 -32.367188 15.796875 -32.953125 L 15.796875 -4.96875 C 15.796875 -1.320312 15.460938 1.492188 14.796875 3.484375 C 14.128906 5.472656 12.988281 7.171875 11.375 8.578125 C 8.925781 10.648438 4.695312 11.6875 -1.3125 11.6875 Z M 9.515625 -48.625 C 11.671875 -48.625 13.335938 -48.164062 14.515625 -47.25 C 15.703125 -46.34375 16.296875 -45.015625 16.296875 -43.265625 C 16.296875 -41.523438 15.703125 -40.195312 14.515625 -39.28125 C 13.335938 -38.375 11.671875 -37.921875 9.515625 -37.921875 C 7.316406 -37.921875 5.632812 -38.375 4.46875 -39.28125 C 3.3125 -40.195312 2.734375 -41.523438 2.734375 -43.265625 C 2.734375 -45.015625 3.3125 -46.34375 4.46875 -47.25 C 5.632812 -48.164062 7.316406 -48.625 9.515625 -48.625 Z M 9.515625 -48.625" transform="translate(131.996 89.182)"/></g></g></g><g><g><g><path d="M 20.703125 -5.90625 C 23.722656 -5.90625 26.226562 -7.296875 28.21875 -10.078125 L 29.28125 -9.703125 C 28.375 -6.796875 26.832031 -4.304688 24.65625 -2.234375 C 22.476562 -0.160156 19.6875 0.875 16.28125 0.875 C 11.9375 0.875 8.457031 -0.472656 5.84375 -3.171875 C 3.226562 -5.867188 1.921875 -10.179688 1.921875 -16.109375 C 1.921875 -21.785156 3.378906 -26.039062 6.296875 -28.875 C 9.222656 -31.71875 13.09375 -33.140625 17.90625 -33.140625 C 25.738281 -33.140625 29.65625 -28.5 29.65625 -19.21875 L 13.609375 -19.21875 C 13.566406 -18.71875 13.546875 -17.96875 13.546875 -16.96875 C 13.546875 -12.988281 14.238281 -10.148438 15.625 -8.453125 C 17.019531 -6.753906 18.710938 -5.90625 20.703125 -5.90625 Z M 17.46875 -31.703125 C 15.144531 -31.703125 13.773438 -27.929688 13.359375 -20.390625 L 20.578125 -20.390625 C 20.617188 -23.703125 20.378906 -26.414062 19.859375 -28.53125 C 19.347656 -30.644531 18.550781 -31.703125 17.46875 -31.703125 Z M 17.46875 -31.703125" transform="translate(151.705 89.182)"/></g></g></g><g><g><g><path d="M 17.84375 -33.140625 C 19.539062 -33.140625 21.101562 -32.960938 22.53125 -32.609375 C 23.96875 -32.253906 25.140625 -31.804688 26.046875 -31.265625 C 27.210938 -30.609375 28.125 -29.71875 28.78125 -28.59375 C 29.445312 -27.476562 29.78125 -26.21875 29.78125 -24.8125 C 29.78125 -23.070312 29.21875 -21.628906 28.09375 -20.484375 C 26.976562 -19.347656 25.550781 -18.78125 23.8125 -18.78125 C 22.03125 -18.78125 20.628906 -19.285156 19.609375 -20.296875 C 18.597656 -21.316406 18.09375 -22.675781 18.09375 -24.375 C 18.09375 -25.863281 18.578125 -27.175781 19.546875 -28.3125 C 20.523438 -29.457031 21.738281 -30.21875 23.1875 -30.59375 C 22.5625 -31.082031 21.734375 -31.328125 20.703125 -31.328125 C 18.046875 -31.328125 16.175781 -29.90625 15.09375 -27.0625 C 14.019531 -24.226562 13.484375 -20.863281 13.484375 -16.96875 C 13.484375 -12.988281 14.226562 -10.148438 15.71875 -8.453125 C 17.21875 -6.753906 19.066406 -5.90625 21.265625 -5.90625 C 24.285156 -5.90625 26.789062 -7.296875 28.78125 -10.078125 L 29.84375 -9.703125 C 28.925781 -6.796875 27.378906 -4.304688 25.203125 -2.234375 C 23.035156 -0.160156 20.25 0.875 16.84375 0.875 C 12.332031 0.875 8.707031 -0.472656 5.96875 -3.171875 C 3.226562 -5.867188 1.859375 -10.179688 1.859375 -16.109375 C 1.859375 -21.785156 3.316406 -26.039062 6.234375 -28.875 C 9.160156 -31.71875 13.03125 -33.140625 17.84375 -33.140625 Z M 17.84375 -33.140625" transform="translate(182.978 89.182)"/></g></g></g><g><g><g><path d="M 15.671875 -32.265625 L 21.765625 -32.265625 L 21.765625 -31.03125 L 15.671875 -31.03125 L 15.671875 -5.21875 C 15.671875 -4.394531 15.8125 -3.816406 16.09375 -3.484375 C 16.382812 -3.148438 16.863281 -2.984375 17.53125 -2.984375 C 18.03125 -2.984375 18.585938 -3.128906 19.203125 -3.421875 C 19.828125 -3.710938 20.390625 -4.164062 20.890625 -4.78125 L 21.828125 -4.046875 C 19.921875 -0.765625 16.976562 0.875 13 0.875 C 10.132812 0.875 8 0.164062 6.59375 -1.25 C 5.71875 -2.113281 5.144531 -3.1875 4.875 -4.46875 C 4.601562 -5.757812 4.46875 -7.566406 4.46875 -9.890625 L 4.46875 -31.03125 L -0.25 -31.03125 L -0.25 -32.265625 L 4.46875 -32.265625 L 4.46875 -39.609375 C 6.707031 -39.609375 8.726562 -39.820312 10.53125 -40.25 C 12.34375 -40.6875 14.054688 -41.382812 15.671875 -42.34375 Z M 15.671875 -32.265625" transform="translate(214.252 89.182)"/></g></g></g><g fill="#1E90FF"><g><g><path d="M 49.796875 -42.78125 C 48.472656 -42.695312 47.507812 -42.53125 46.90625 -42.28125 C 46.300781 -42.03125 45.894531 -41.550781 45.6875 -40.84375 C 45.488281 -40.144531 45.390625 -39.003906 45.390625 -37.421875 L 45.390625 -6.59375 C 45.390625 -5.019531 45.5 -3.878906 45.71875 -3.171875 C 45.945312 -2.460938 46.351562 -1.984375 46.9375 -1.734375 C 47.519531 -1.492188 48.472656 -1.332031 49.796875 -1.25 L 49.796875 0 C 47.554688 -0.125 44.078125 -0.1875 39.359375 -0.1875 C 34.585938 -0.1875 30.914062 -0.125 28.34375 0 L 28.34375 -1.25 C 29.675781 -1.332031 30.640625 -1.492188 31.234375 -1.734375 C 31.835938 -1.984375 32.242188 -2.460938 32.453125 -3.171875 C 32.660156 -3.878906 32.765625 -5.019531 32.765625 -6.59375 L 32.765625 -21.515625 L 18.78125 -21.515625 L 18.78125 -6.59375 C 18.78125 -5.019531 18.890625 -3.878906 19.109375 -3.171875 C 19.335938 -2.460938 19.742188 -1.984375 20.328125 -1.734375 C 20.910156 -1.492188 21.863281 -1.332031 23.1875 -1.25 L 23.1875 0 C 20.78125 -0.125 17.320312 -0.1875 12.8125 -0.1875 C 7.789062 -0.1875 4.097656 -0.125 1.734375 0 L 1.734375 -1.25 C 3.066406 -1.332031 4.03125 -1.492188 4.625 -1.734375 C 5.226562 -1.984375 5.632812 -2.460938 5.84375 -3.171875 C 6.050781 -3.878906 6.15625 -5.019531 6.15625 -6.59375 L 6.15625 -37.421875 C 6.15625 -39.003906 6.039062 -40.144531 5.8125 -40.84375 C 5.582031 -41.550781 5.175781 -42.03125 4.59375 -42.28125 C 4.019531 -42.53125 3.066406 -42.695312 1.734375 -42.78125 L 1.734375 -44.015625 C 4.097656 -43.890625 7.789062 -43.828125 12.8125 -43.828125 C 17.28125 -43.828125 20.738281 -43.890625 23.1875 -44.015625 L 23.1875 -42.78125 C 21.863281 -42.695312 20.898438 -42.53125 20.296875 -42.28125 C 19.691406 -42.03125 19.285156 -41.550781 19.078125 -40.84375 C 18.878906 -40.144531 18.78125 -39.003906 18.78125 -37.421875 L 18.78125 -22.75 L 32.765625 -22.75 L 32.765625 -37.421875 C 32.765625 -39.003906 32.648438 -40.144531 32.421875 -40.84375 C 32.191406 -41.550781 31.785156 -42.03125 31.203125 -42.28125 C 30.628906 -42.53125 29.675781 -42.695312 28.34375 -42.78125 L 28.34375 -44.015625 C 30.914062 -43.890625 34.585938 -43.828125 39.359375 -43.828125 C 44.078125 -43.828125 47.554688 -43.890625 49.796875 -44.015625 Z M 49.796875 -42.78125" transform="translate(236.003 89.182)"/></g></g></g><g fill="#1E90FF"><g><g><path d="M 39.796875 -5.21875 C 40.328125 -3.894531 40.914062 -2.910156 41.5625 -2.265625 C 42.207031 -1.628906 42.835938 -1.289062 43.453125 -1.25 L 43.453125 0 C 40.472656 -0.125 36.703125 -0.1875 32.140625 -0.1875 C 27.421875 -0.1875 23.941406 -0.125 21.703125 0 L 21.703125 -1.25 C 23.273438 -1.332031 24.390625 -1.523438 25.046875 -1.828125 C 25.710938 -2.140625 26.046875 -2.691406 26.046875 -3.484375 C 26.046875 -4.222656 25.796875 -5.21875 25.296875 -6.46875 L 21.640625 -16.65625 L 9.078125 -16.65625 L 8.015625 -13.859375 C 6.648438 -10.335938 5.96875 -7.644531 5.96875 -5.78125 C 5.96875 -4.082031 6.441406 -2.921875 7.390625 -2.296875 C 8.347656 -1.679688 9.757812 -1.332031 11.625 -1.25 L 11.625 0 C 8.519531 -0.125 5.804688 -0.1875 3.484375 -0.1875 C 1.535156 -0.1875 -0.0625 -0.125 -1.3125 0 L -1.3125 -1.25 C -0.269531 -1.40625 0.703125 -2.039062 1.609375 -3.15625 C 2.523438 -4.28125 3.460938 -6.066406 4.421875 -8.515625 L 18.21875 -44.015625 C 19.539062 -43.929688 20.640625 -43.890625 21.515625 -43.890625 C 22.335938 -43.890625 23.414062 -43.929688 24.75 -44.015625 Z M 21.203125 -17.90625 L 15.546875 -33.453125 L 9.578125 -17.90625 Z M 21.203125 -17.90625" transform="translate(287.545 89.182)"/></g></g></g><g fill="#1E90FF"><g><g><path d="M 23.1875 -42.78125 C 21.863281 -42.695312 20.898438 -42.53125 20.296875 -42.28125 C 19.691406 -42.03125 19.285156 -41.550781 19.078125 -40.84375 C 18.878906 -40.144531 18.78125 -39.003906 18.78125 -37.421875 L 18.78125 -6.59375 C 18.78125 -5.019531 18.890625 -3.878906 19.109375 -3.171875 C 19.335938 -2.460938 19.742188 -1.984375 20.328125 -1.734375 C 20.910156 -1.492188 21.863281 -1.332031 23.1875 -1.25 L 23.1875 0 C 20.78125 -0.125 17.320312 -0.1875 12.8125 -0.1875 C 7.789062 -0.1875 4.097656 -0.125 1.734375 0 L 1.734375 -1.25 C 3.066406 -1.332031 4.03125 -1.492188 4.625 -1.734375 C 5.226562 -1.984375 5.632812 -2.460938 5.84375 -3.171875 C 6.050781 -3.878906 6.15625 -5.019531 6.15625 -6.59375 L 6.15625 -37.421875 C 6.15625 -39.003906 6.039062 -40.144531 5.8125 -40.84375 C 5.582031 -41.550781 5.175781 -42.03125 4.59375 -42.28125 C 4.019531 -42.53125 3.066406 -42.695312 1.734375 -42.78125 L 1.734375 -44.015625 C 4.097656 -43.890625 7.789062 -43.828125 12.8125 -43.828125 C 17.28125 -43.828125 20.738281 -43.890625 23.1875 -44.015625 Z M 23.1875 -42.78125" transform="translate(414.877 89.182)"/></g></g></g><g fill="#1E90FF"><g><g><path d="M 37.296875 -10.4375 C 37.296875 -6.21875 37.441406 -2.738281 37.734375 0 C 34.921875 -0.125 30.175781 -0.1875 23.5 -0.1875 C 13.800781 -0.1875 6.546875 -0.125 1.734375 0 L 1.734375 -1.25 C 3.066406 -1.332031 4.03125 -1.492188 4.625 -1.734375 C 5.226562 -1.984375 5.632812 -2.460938 5.84375 -3.171875 C 6.050781 -3.878906 6.15625 -5.019531 6.15625 -6.59375 L 6.15625 -37.421875 C 6.15625 -39.003906 6.039062 -40.144531 5.8125 -40.84375 C 5.582031 -41.550781 5.175781 -42.03125 4.59375 -42.28125 C 4.019531 -42.53125 3.066406 -42.695312 1.734375 -42.78125 L 1.734375 -44.015625 C 6.546875 -43.890625 13.800781 -43.828125 23.5 -43.828125 C 29.59375 -43.828125 33.925781 -43.890625 36.5 -44.015625 C 36.207031 -40.117188 36.0625 -36.640625 36.0625 -33.578125 C 36.0625 -31.671875 36.125 -30.175781 36.25 -29.09375 L 34.8125 -29.09375 C 34.070312 -33.90625 32.6875 -37.359375 30.65625 -39.453125 C 28.625 -41.546875 26.195312 -42.59375 23.375 -42.59375 L 22.5625 -42.59375 C 21.445312 -42.59375 20.628906 -42.5 20.109375 -42.3125 C 19.585938 -42.125 19.234375 -41.769531 19.046875 -41.25 C 18.867188 -40.726562 18.78125 -39.867188 18.78125 -38.671875 L 18.78125 -22.75 L 19.390625 -22.75 C 21.546875 -22.75 23.390625 -23.597656 24.921875 -25.296875 C 26.460938 -27.003906 27.441406 -28.894531 27.859375 -30.96875 L 29.28125 -30.96875 C 29.15625 -29.21875 29.09375 -27.269531 29.09375 -25.125 L 29.09375 -22.140625 C 29.09375 -20.023438 29.21875 -17.082031 29.46875 -13.3125 L 28.046875 -13.3125 C 27.671875 -15.664062 26.703125 -17.617188 25.140625 -19.171875 C 23.585938 -20.734375 21.671875 -21.515625 19.390625 -21.515625 L 18.78125 -21.515625 L 18.78125 -5.34375 C 18.78125 -4.144531 18.867188 -3.285156 19.046875 -2.765625 C 19.234375 -2.242188 19.585938 -1.890625 20.109375 -1.703125 C 20.628906 -1.523438 21.445312 -1.4375 22.5625 -1.4375 L 24.625 -1.4375 C 27.019531 -1.4375 29.296875 -2.601562 31.453125 -4.9375 C 33.609375 -7.28125 35.144531 -11.023438 36.0625 -16.171875 L 37.484375 -16.171875 C 37.359375 -14.671875 37.296875 -12.757812 37.296875 -10.4375 Z M 37.296875 -10.4375" transform="translate(439.809 89.182)"/></g></g></g></svg>